{
  "accessors": [
    {
      "bufferView": 1,
      "componentType": 5126,
      "count": 226,
      "max": [
        25.01099967956543,
        -0,
        25
      ],
      "min": [
        -25,
        -50,
        -25
      ],
      "type": "VEC3"
    },
    {
      "bufferView": 1,
      "byteOffset": 2712,
      "componentType": 5126,
      "count": 226,
      "max": [
        1,
        1,
        0.99996715784072876
      ],
      "min": [
        -1,
        -1,
        -0.99997568130493164
      ],
      "type": "VEC3"
    },
    {
      "bufferView": 0,
      "componentType": 5125,
      "count": 666,
      "max": [
        225
      ],
      "min": [
        0
      ],
      "type": "SCALAR"
    }
  ],
  "asset": {
    "extras": {
      "author": "Tyler Waite (https://sketchfab.com/holos-tyler)",
      "license": "CC-BY-4.0 (http://creativecommons.org/licenses/by/4.0/)",
      "source": "https://sketchfab.com/3d-models/h-562fb805c57944ce91eab55c6763511c",
      "title": "H"
    },
    "generator": "Sketchfab-5.81.0",
    "version": "2.0"
  },
  "bufferViews": [
    {
      "buffer": 0,
      "byteLength": 2664,
      "byteOffset": 0,
      "name": "floatBufferViews",
      "target": 34963
    },
    {
      "buffer": 0,
      "byteLength": 5424,
      "byteOffset": 2664,
      "byteStride": 12,
      "name": "floatBufferViews",
      "target": 34962
    }
  ],
  "buffers": [
    {
      "byteLength": 8088,
      "uri": "scene.bin"
    }
  ],
  "materials": [
    {
      "doubleSided": true,
      "emissiveFactor": [
        0,
        0,
        0
      ],
      "name": "color_12955475",
      "pbrMetallicRoughness": {
        "baseColorFactor": [
          0.55834038963426791,
          0.42869049661390662,
          0.086500462036549763,
          1
        ],
        "metallicFactor": 0,
        "roughnessFactor": 0.80000000000000004
      }
    }
  ],
  "meshes": [
    {
      "primitives": [
        {
          "attributes": {
            "NORMAL": 1,
            "POSITION": 0
          },
          "indices": 2,
          "material": 0,
          "mode": 4
        }
      ]
    }
  ],
  "nodes": [
    {
      "children": [
        1
      ],
      "name": "RootNode (gltf orientation matrix)",
      "rotation": [
        -0.70710678118654746,
        -0,
        -0,
        0.70710678118654757
      ]
    },
    {
      "children": [
        2
      ],
      "name": "RootNode (model correction matrix)"
    },
    {
      "children": [
        3
      ],
      "name": "H.obj.cleaner.materialmerger.gles"
    },
    {
      "mesh": 0,
      "name": ""
    }
  ],
  "scene": 0,
  "scenes": [
    {
      "name": "OSG_Scene",
      "nodes": [
        0
      ]
    }
  ]
}

